# xmcd
#
# Track frame offsets:
# 150
# 18668
# 40625
# 58173
# 73798
# 94180
# 104790
# 122508
# 135108
# 146138
# 158550
# 176448
# 192135
# 206558
# 222980
# 234823
#
# Disc length: 3310 seconds
#
#
# Revision: 3
# Processed by: cddbd v1.5.2PL0 Copyright (c) Steve Scherf et al.
# Submitted via: FreeRIP 2.951 
#
DISCID=df0cec10
DTITLE=Howard Carpendale - Howard Carpendale - 1998 - Deine Spuren Im Sand
DYEAR=1998
DGENRE=Schlager, dt.
TTITLE0=Ti Amo
TTITLE1=Nachts, wenn alles schläft
TTITLE2=Fremde oder Freunde
TTITLE3=Deine Spuren im Sand
TTITLE4=Dann geh' doch
TTITLE5=Das schöne Mädchen von Seite 1
TTITLE6=Der Sohn von Hickoy Hollers Tramp
TTITLE7=In Chicago
TTITLE8=Ich geb' mir selbst 'ne Party
TTITLE9=Stand By Me
TTITLE10=Du fängst den Wind niemals ein
TTITLE11=Da nahm er seine Gitarre
TTITLE12=Ob-La-Di, Ob-La-Da
TTITLE13=You've Lost That Loving Feelin'
TTITLE14=Indianapolis
TTITLE15=Armer, alter, reicher Mann (Sittin' On The Dock Of The Bay)
EXTD=
EXTT0=
EXTT1=
EXTT2=
EXTT3=
EXTT4=
EXTT5=
EXTT6=
EXTT7=
EXTT8=
EXTT9=
EXTT10=
EXTT11=
EXTT12=
EXTT13=
EXTT14=
EXTT15=
PLAYORDER=
